<?xml version="1.0" encoding="UTF-8" standalone="no"?>
<!DOCTYPE svg PUBLIC "-//W3C//DTD SVG 1.1//EN"
 "http://www.w3.org/Graphics/SVG/1.1/DTD/svg11.dtd">
<!-- Generated by graphviz version 2.43.0 (0)
 -->
<!-- Title: main Pages: 1 -->
<svg width="552pt" height="692pt"
 viewBox="0.00 0.00 552.41 692.00" xmlns="http://www.w3.org/2000/svg" xmlns:xlink="http://www.w3.org/1999/xlink">
<g id="graph0" class="graph" transform="scale(1 1) rotate(0) translate(4 688)">
<title>main</title>
<polygon fill="white" stroke="transparent" points="-4,4 -4,-688 548.41,-688 548.41,4 -4,4"/>
<!-- 32 -->
<g id="node1" class="node">
<title>32</title>
<ellipse fill="none" stroke="black" cx="251.53" cy="-162" rx="185.47" ry="18"/>
<text text-anchor="start" x="117.03" y="-159.3" font-family="Times,serif" font-size="14.00">(printf,printf(&quot;What is the meaning of life?\n&quot;))</text>
<text text-anchor="start" x="379.03" y="-159.3" font-family="Times,serif" baseline-shift="sub" font-size="14.00">8</text>
</g>
<!-- 34 -->
<g id="node2" class="node">
<title>34</title>
<ellipse fill="none" stroke="black" cx="251.53" cy="-90" rx="60.39" ry="18"/>
<text text-anchor="start" x="213.03" y="-87.3" font-family="Times,serif" font-size="14.00">(exit,exit(0))</text>
<text text-anchor="start" x="283.03" y="-87.3" font-family="Times,serif" baseline-shift="sub" font-size="14.00">9</text>
</g>
<!-- 32&#45;&gt;34 -->
<g id="edge1" class="edge">
<title>32&#45;&gt;34</title>
<path fill="none" stroke="black" d="M251.53,-143.7C251.53,-135.98 251.53,-126.71 251.53,-118.11"/>
<polygon fill="black" stroke="black" points="255.03,-118.1 251.53,-108.1 248.03,-118.1 255.03,-118.1"/>
</g>
<!-- 36 -->
<g id="node10" class="node">
<title>36</title>
<ellipse fill="none" stroke="black" cx="251.53" cy="-18" rx="110.48" ry="18"/>
<text text-anchor="start" x="174.53" y="-15.3" font-family="Times,serif" font-size="14.00">(METHOD_RETURN,int)</text>
<text text-anchor="start" x="321.53" y="-15.3" font-family="Times,serif" baseline-shift="sub" font-size="14.00">4</text>
</g>
<!-- 34&#45;&gt;36 -->
<g id="edge2" class="edge">
<title>34&#45;&gt;36</title>
<path fill="none" stroke="black" d="M251.53,-71.7C251.53,-63.98 251.53,-54.71 251.53,-46.11"/>
<polygon fill="black" stroke="black" points="255.03,-46.1 251.53,-36.1 248.03,-46.1 255.03,-46.1"/>
</g>
<!-- 18 -->
<g id="node3" class="node">
<title>18</title>
<ellipse fill="none" stroke="black" cx="251.53" cy="-306" rx="251.56" ry="18"/>
<text text-anchor="start" x="66.03" y="-303.3" font-family="Times,serif" font-size="14.00">(&lt;operator&gt;.logicalAnd,argc &gt; 1 &amp;&amp; strcmp(argv[1], &quot;42&quot;) == 0)</text>
<text text-anchor="start" x="430.03" y="-303.3" font-family="Times,serif" baseline-shift="sub" font-size="14.00">5</text>
</g>
<!-- 18&#45;&gt;32 -->
<g id="edge4" class="edge">
<title>18&#45;&gt;32</title>
<path fill="none" stroke="black" d="M240.06,-287.67C234.15,-277.69 227.56,-264.65 224.53,-252 220.79,-236.44 220.79,-231.56 224.53,-216 226.73,-206.81 230.82,-197.41 235.15,-189.13"/>
<polygon fill="black" stroke="black" points="238.24,-190.77 240.06,-180.33 232.13,-187.36 238.24,-190.77"/>
</g>
<!-- 30 -->
<g id="node6" class="node">
<title>30</title>
<ellipse fill="none" stroke="black" cx="297.53" cy="-234" rx="64.19" ry="18"/>
<text text-anchor="start" x="256.03" y="-231.3" font-family="Times,serif" font-size="14.00">(exit,exit(42))</text>
<text text-anchor="start" x="332.03" y="-231.3" font-family="Times,serif" baseline-shift="sub" font-size="14.00">6</text>
</g>
<!-- 18&#45;&gt;30 -->
<g id="edge3" class="edge">
<title>18&#45;&gt;30</title>
<path fill="none" stroke="black" d="M262.9,-287.7C268.25,-279.56 274.73,-269.69 280.64,-260.7"/>
<polygon fill="black" stroke="black" points="283.72,-262.38 286.29,-252.1 277.87,-258.54 283.72,-262.38"/>
</g>
<!-- 19 -->
<g id="node4" class="node">
<title>19</title>
<ellipse fill="none" stroke="black" cx="240.53" cy="-594" rx="138.38" ry="18"/>
<text text-anchor="start" x="142.03" y="-591.3" font-family="Times,serif" font-size="14.00">(&lt;operator&gt;.greaterThan,argc &gt; 1)</text>
<text text-anchor="start" x="332.03" y="-591.3" font-family="Times,serif" baseline-shift="sub" font-size="14.00">5</text>
</g>
<!-- 19&#45;&gt;18 -->
<g id="edge5" class="edge">
<title>19&#45;&gt;18</title>
<path fill="none" stroke="black" d="M210.03,-576.31C196.78,-567.37 182.48,-555.08 174.53,-540 137.15,-469.1 124.1,-429.78 163.53,-360 170.94,-346.88 183.05,-336.65 195.94,-328.82"/>
<polygon fill="black" stroke="black" points="197.93,-331.72 204.95,-323.79 194.51,-325.61 197.93,-331.72"/>
</g>
<!-- 24 -->
<g id="node8" class="node">
<title>24</title>
<ellipse fill="none" stroke="black" cx="347.53" cy="-522" rx="163.57" ry="18"/>
<text text-anchor="start" x="229.53" y="-519.3" font-family="Times,serif" font-size="14.00">(&lt;operator&gt;.indirectIndexAccess,argv[1])</text>
<text text-anchor="start" x="458.53" y="-519.3" font-family="Times,serif" baseline-shift="sub" font-size="14.00">5</text>
</g>
<!-- 19&#45;&gt;24 -->
<g id="edge6" class="edge">
<title>19&#45;&gt;24</title>
<path fill="none" stroke="black" d="M266.16,-576.23C280.21,-567.04 297.83,-555.51 313.08,-545.54"/>
<polygon fill="black" stroke="black" points="315.28,-548.28 321.74,-539.87 311.45,-542.42 315.28,-548.28"/>
</g>
<!-- 22 -->
<g id="node5" class="node">
<title>22</title>
<ellipse fill="none" stroke="black" cx="358.53" cy="-378" rx="185.77" ry="18"/>
<text text-anchor="start" x="223.53" y="-375.3" font-family="Times,serif" font-size="14.00">(&lt;operator&gt;.equals,strcmp(argv[1], &quot;42&quot;) == 0)</text>
<text text-anchor="start" x="486.53" y="-375.3" font-family="Times,serif" baseline-shift="sub" font-size="14.00">5</text>
</g>
<!-- 22&#45;&gt;18 -->
<g id="edge7" class="edge">
<title>22&#45;&gt;18</title>
<path fill="none" stroke="black" d="M332.63,-360.05C318.67,-350.92 301.25,-339.53 286.15,-329.65"/>
<polygon fill="black" stroke="black" points="287.85,-326.58 277.56,-324.03 284.01,-332.44 287.85,-326.58"/>
</g>
<!-- 30&#45;&gt;32 -->
<g id="edge8" class="edge">
<title>30&#45;&gt;32</title>
<path fill="none" stroke="black" d="M286.39,-216.05C280.99,-207.84 274.39,-197.79 268.39,-188.66"/>
<polygon fill="black" stroke="black" points="271.3,-186.71 262.88,-180.28 265.45,-190.55 271.3,-186.71"/>
</g>
<!-- 23 -->
<g id="node7" class="node">
<title>23</title>
<ellipse fill="none" stroke="black" cx="352.53" cy="-450" rx="125.38" ry="18"/>
<text text-anchor="start" x="264.03" y="-447.3" font-family="Times,serif" font-size="14.00">(strcmp,strcmp(argv[1], &quot;42&quot;))</text>
<text text-anchor="start" x="434.03" y="-447.3" font-family="Times,serif" baseline-shift="sub" font-size="14.00">5</text>
</g>
<!-- 23&#45;&gt;22 -->
<g id="edge9" class="edge">
<title>23&#45;&gt;22</title>
<path fill="none" stroke="black" d="M354.01,-431.7C354.67,-423.98 355.47,-414.71 356.2,-406.11"/>
<polygon fill="black" stroke="black" points="359.69,-406.37 357.06,-396.1 352.72,-405.77 359.69,-406.37"/>
</g>
<!-- 24&#45;&gt;23 -->
<g id="edge10" class="edge">
<title>24&#45;&gt;23</title>
<path fill="none" stroke="black" d="M348.76,-503.7C349.31,-495.98 349.98,-486.71 350.59,-478.11"/>
<polygon fill="black" stroke="black" points="354.08,-478.33 351.31,-468.1 347.1,-477.83 354.08,-478.33"/>
</g>
<!-- 13 -->
<g id="node9" class="node">
<title>13</title>
<ellipse fill="none" stroke="black" cx="240.53" cy="-666" rx="79.89" ry="18"/>
<text text-anchor="start" x="187.03" y="-663.3" font-family="Times,serif" font-size="14.00">(METHOD,main)</text>
<text text-anchor="start" x="287.03" y="-663.3" font-family="Times,serif" baseline-shift="sub" font-size="14.00">4</text>
</g>
<!-- 13&#45;&gt;19 -->
<g id="edge11" class="edge">
<title>13&#45;&gt;19</title>
<path fill="none" stroke="black" d="M240.53,-647.7C240.53,-639.98 240.53,-630.71 240.53,-622.11"/>
<polygon fill="black" stroke="black" points="244.03,-622.1 240.53,-612.1 237.03,-622.1 244.03,-622.1"/>
</g>
</g>
</svg>
